<?xml version="1.0" standalone="no"?>
<!DOCTYPE svg PUBLIC "-//W3C//DTD SVG 20010904//EN"
 "http://www.w3.org/TR/2001/REC-SVG-20010904/DTD/svg10.dtd">
<svg version="1.0" xmlns="http://www.w3.org/2000/svg"
 width="2000.000000pt" height="2000.000000pt" viewBox="0 0 2000.000000 2000.000000"
 preserveAspectRatio="xMidYMid meet">
<metadata>
Created by potrace 1.14, written by Peter Selinger 2001-2017
</metadata>
<g transform="translate(0.000000,2000.000000) scale(0.100000,-0.100000)"
fill="#000000" stroke="none">
<path d="M2710 19643 c-30 -2 -107 -10 -170 -19 -562 -74 -1068 -328 -1466
-736 -389 -398 -615 -859 -701 -1433 -17 -115 -18 -445 -18 -7455 0 -7010 1
-7340 18 -7455 88 -590 331 -1072 739 -1471 398 -389 859 -615 1433 -701 115
-17 445 -18 7455 -18 7010 0 7340 1 7455 18 590 88 1072 331 1471 739 389 398
615 859 701 1433 17 115 18 445 18 7455 0 7010 -1 7340 -18 7455 -38 254 -100
474 -192 685 -249 569 -725 1046 -1294 1294 -202 89 -402 147 -648 188 l-128
22 -7300 1 c-4015 1 -7325 0 -7355 -2z m14605 -1169 c303 -71 542 -202 750
-409 227 -227 373 -516 420 -829 13 -93 15 -858 15 -7236 0 -7860 5 -7217 -61
-7443 -38 -130 -129 -316 -210 -432 -79 -111 -238 -271 -345 -348 -162 -114
-361 -203 -561 -249 l-98 -23 -3987 -2 -3988 -3 25 57 c14 32 1521 3554 3349
7828 3283 7675 3323 7770 3307 7798 l-15 27 -1516 0 -1515 0 -845 -2077
c-1198 -2947 -1559 -3863 -1921 -4861 -82 -228 -116 -309 -121 -295 -5 10
-669 1640 -1477 3623 l-1469 3605 -1484 3 -1484 2 -16 -27 c-16 -28 1 -67
2213 -5178 1226 -2832 2239 -5173 2250 -5201 l22 -52 -1123 -2626 -1124 -2626
-1765 3 -1766 3 -98 22 c-291 67 -536 201 -742 407 -227 227 -373 516 -420
829 -13 93 -15 858 -15 7236 0 6378 2 7143 15 7236 22 148 67 291 134 429 215
440 627 744 1108 819 74 12 1217 14 7278 12 l7190 -1 90 -21z"/>
</g>
</svg>
